<svg width="20" height="20" viewBox="0 0 20 20" fill="none" xmlns="http://www.w3.org/2000/svg">
<g clip-path="url(#clip0_545_12809)">
<path d="M15 2.5H5C4.33696 2.5 3.70107 2.76339 3.23223 3.23223C2.76339 3.70107 2.5 4.33696 2.5 5V15C2.5 15.663 2.76339 16.2989 3.23223 16.7678C3.70107 17.2366 4.33696 17.5 5 17.5H15C15.663 17.5 16.2989 17.2366 16.7678 16.7678C17.2366 16.2989 17.5 15.663 17.5 15V5C17.5 4.33696 17.2366 3.70107 16.7678 3.23223C16.2989 2.76339 15.663 2.5 15 2.5ZM5 4.16667H15C15.221 4.16667 15.433 4.25446 15.5893 4.41074C15.7455 4.56702 15.8333 4.77899 15.8333 5V11.9667L13.1667 9.69167C12.7535 9.3517 12.2351 9.16583 11.7 9.16583C11.1649 9.16583 10.6465 9.3517 10.2333 9.69167L4.16667 14.75V5C4.16667 4.77899 4.25446 4.56702 4.41074 4.41074C4.56702 4.25446 4.77899 4.16667 5 4.16667ZM15 15.8333H5.46667L11.3 10.9667C11.4121 10.8835 11.5479 10.8385 11.6875 10.8385C11.8271 10.8385 11.9629 10.8835 12.075 10.9667L15.8333 14.1667V15C15.8333 15.221 15.7455 15.433 15.5893 15.5893C15.433 15.7455 15.221 15.8333 15 15.8333Z" fill="#9A9FA5"/>
<path d="M6.66675 8.33301C7.3571 8.33301 7.91675 7.77336 7.91675 7.08301C7.91675 6.39265 7.3571 5.83301 6.66675 5.83301C5.97639 5.83301 5.41675 6.39265 5.41675 7.08301C5.41675 7.77336 5.97639 8.33301 6.66675 8.33301Z" fill="#9A9FA5"/>
</g>
<defs>
<clipPath id="clip0_545_12809">
<rect width="20" height="20" fill="white"/>
</clipPath>
</defs>
</svg>
