<svg width="324" height="100" viewBox="0 0 324 100" fill="none" xmlns="http://www.w3.org/2000/svg">
<g filter="url(#filter0_d_293_3848)">
<g filter="url(#filter1_d_293_3848)">
<path d="M32.6399 49.2014L48.7867 32.9717H33.5709L21.712 44.8376V10L10 21.7188V66.9512H21.712V53.3692L35.2861 66.9512H50.3793L32.6399 49.2014Z" fill="white"/>
</g>
</g>
<g filter="url(#filter2_d_293_3848)">
<path d="M49.7342 62.9306C45.9609 59.5657 44.0742 55.257 44.0742 50.0105C44.0742 44.7518 46.0344 40.437 49.9547 37.066C53.8873 33.6827 58.7509 31.9911 64.5334 31.9911C70.2179 31.9911 75.008 33.695 78.9161 37.0905C82.818 40.4921 84.7721 44.8008 84.7721 50.0105C84.7721 55.208 82.8609 59.4983 79.0386 62.8816C75.2285 66.2648 70.3955 67.9564 64.5334 67.9564C58.4385 67.9564 53.5075 66.2832 49.7342 62.9306ZM58.7999 44.2492C57.2808 45.7386 56.5212 47.657 56.5212 50.0105C56.5212 52.3518 57.2441 54.2641 58.7019 55.7473C60.1537 57.2183 62.0709 57.9538 64.4599 57.9538C66.7447 57.9538 68.6252 57.2061 70.0954 55.6983C71.5777 54.1967 72.325 52.3028 72.325 50.0105C72.325 47.657 71.5655 45.7386 70.0464 44.2492C68.5272 42.7476 66.6651 41.9937 64.4599 41.9937C62.2057 41.9937 60.3191 42.7476 58.7999 44.2492Z" fill="white"/>
</g>
<g filter="url(#filter3_d_293_3848)">
<path d="M84.0449 66.9513V32.9718H95.7569V36.5511H95.9039C98.9421 33.5111 102.183 31.9911 105.631 31.9911C107.297 31.9911 108.951 32.2118 110.605 32.6531C112.271 33.0943 113.864 33.7808 115.383 34.7124C116.902 35.6318 118.133 36.9373 119.083 38.635C120.026 40.3389 120.504 42.3124 120.504 44.5679V66.9513H108.792V47.7551C108.792 45.9899 108.228 44.4454 107.101 43.1215C105.974 41.7976 104.51 41.1357 102.715 41.1357C100.951 41.1357 99.3464 41.8221 97.9131 43.195C96.4736 44.5557 95.7569 46.0757 95.7569 47.7551V66.9513H84.0449Z" fill="white"/>
</g>
<g filter="url(#filter4_d_293_3848)">
<path d="M139.621 41.6015C137.416 41.6015 135.517 42.4228 133.937 44.0531C132.35 45.6712 131.56 47.6325 131.56 49.937C131.56 52.2783 132.35 54.2641 133.937 55.8944C135.517 57.5309 137.416 58.3461 139.621 58.3461C140.681 58.3461 141.686 58.2174 142.635 57.9538C143.579 57.678 144.277 57.4083 144.718 57.1448L145.33 56.7525L149.3 64.8919C148.987 65.1248 148.552 65.4006 148.001 65.7254C147.444 66.0564 146.188 66.5038 144.228 67.0738C142.268 67.6622 140.161 67.9564 137.906 67.9564C132.92 67.9564 128.547 66.2035 124.773 62.6854C121 59.1735 119.113 54.9628 119.113 50.0596C119.113 45.1257 121 40.8844 124.773 37.3357C128.547 33.7747 132.92 31.9911 137.906 31.9911C140.161 31.9911 142.231 32.2608 144.13 32.8002C146.023 33.3273 147.37 33.8482 148.173 34.3692L149.3 35.1782L145.33 43.1705C143.873 42.1286 141.974 41.6015 139.621 41.6015Z" fill="white"/>
</g>
<g filter="url(#filter5_d_293_3848)">
<path d="M148.959 14.0453C150.331 12.6724 151.96 11.9859 153.859 11.9859C155.752 11.9859 157.375 12.6724 158.735 14.0453C160.107 15.4182 160.793 17.0546 160.793 18.9485C160.793 20.8485 160.107 22.4788 158.735 23.8518C157.375 25.2124 155.752 25.8866 153.859 25.8866C151.96 25.8866 150.331 25.2124 148.959 23.8518C147.586 22.4788 146.9 20.8485 146.9 18.9485C146.9 17.0546 147.586 15.4182 148.959 14.0453ZM147.831 32.9718V66.9513H159.543V32.9718H147.831Z" fill="white"/>
</g>
<g filter="url(#filter6_d_293_3848)">
<path d="M195.945 51.5796H171.32C171.32 53.9699 172.086 55.7412 173.623 56.8996C175.173 58.0457 176.858 58.6157 178.671 58.6157C180.563 58.6157 182.058 58.3644 183.155 57.8557C184.263 57.3531 185.531 56.348 186.952 54.8402L195.406 59.0815C191.877 65.0022 186.009 67.9564 177.813 67.9564C172.68 67.9564 168.288 66.2035 164.631 62.6854C160.968 59.1735 159.143 54.9506 159.143 50.0105C159.143 45.0583 160.968 40.817 164.631 37.2866C168.288 33.7563 172.68 31.9911 177.813 31.9911C183.185 31.9911 187.565 33.554 190.946 36.6737C194.327 39.7811 196.018 44.2247 196.018 50.0105C196.018 50.7951 195.994 51.3222 195.945 51.5796ZM171.663 45.1073H184.551C184.288 43.3421 183.596 41.9876 182.468 41.0376C181.341 40.0753 179.896 39.5911 178.132 39.5911C176.184 39.5911 174.64 40.106 173.501 41.1357C172.355 42.1531 171.743 43.477 171.663 45.1073Z" fill="white"/>
</g>
<g filter="url(#filter7_d_293_3848)">
<path d="M195.273 66.9513V32.9718H206.985V37.875H207.132C207.212 37.6973 207.353 37.4766 207.549 37.2131C207.745 36.9557 208.168 36.496 208.823 35.8402C209.491 35.1721 210.201 34.5776 210.955 34.0505C211.702 33.5111 212.676 33.0392 213.87 32.6285C215.059 32.2056 216.278 31.9911 217.521 31.9911C218.795 31.9911 220.045 32.175 221.27 32.5305C222.507 32.8737 223.414 33.2292 223.99 33.5847L224.921 34.0995L220.02 44.0286C218.563 42.8028 216.541 42.1899 213.944 42.1899C212.523 42.1899 211.304 42.5025 210.293 43.1215C209.276 43.7283 208.56 44.4699 208.137 45.3525C207.727 46.235 207.433 46.9889 207.255 47.608C207.071 48.2331 206.985 48.7234 206.985 49.0789V66.9513H195.273Z" fill="white"/>
</g>
<g filter="url(#filter8_d_293_3848)">
<path d="M220.486 75.2868L230.091 70.6042C231.855 73.5093 234.917 74.9681 239.279 74.9681C241.3 74.9681 243.187 74.3123 244.939 73.0068C246.685 71.6951 247.56 69.7032 247.56 67.0248V64.4996C245.484 66.8042 241.778 67.9564 236.437 67.9564C231.536 67.9564 227.493 66.228 224.308 62.759C221.135 59.2777 219.555 55.0302 219.555 50.0105C219.555 44.9786 221.135 40.7189 224.308 37.2376C227.493 33.744 231.536 31.9911 236.437 31.9911C240.798 31.9911 244.436 33.3395 247.364 36.0363H247.56V32.9718H259.272V67.8829C259.272 73.3868 257.435 77.6465 253.76 80.6558C250.096 83.6591 245.27 85.1668 239.279 85.1668C229.576 85.1668 223.31 81.8694 220.486 75.2868ZM234.28 44.2492C232.761 45.7386 232.002 47.657 232.002 50.0105C232.002 52.3518 232.725 54.2641 234.182 55.7473C235.634 57.2183 237.551 57.9538 239.94 57.9538C242.225 57.9538 244.106 57.2061 245.576 55.6983C247.058 54.1967 247.806 52.3028 247.806 50.0105C247.806 47.657 247.046 45.7386 245.527 44.2492C244.008 42.7476 242.146 41.9937 239.94 41.9937C237.686 41.9937 235.8 42.7476 234.28 44.2492Z" fill="white"/>
</g>
<g filter="url(#filter9_d_293_3848)">
<path d="M295.331 51.5796H270.707C270.707 53.9699 271.472 55.7412 273.01 56.8996C274.56 58.0457 276.244 58.6157 278.057 58.6157C279.95 58.6157 281.445 58.3644 282.541 57.8557C283.65 57.3531 284.918 56.348 286.339 54.8402L294.792 59.0815C291.264 65.0022 285.396 67.9564 277.2 67.9564C272.067 67.9564 267.675 66.2035 264.018 62.6854C260.355 59.1735 258.529 54.9506 258.529 50.0105C258.529 45.0583 260.355 40.817 264.018 37.2866C267.675 33.7563 272.067 31.9911 277.2 31.9911C282.572 31.9911 286.952 33.554 290.333 36.6737C293.714 39.7811 295.405 44.2247 295.405 50.0105C295.405 50.7951 295.38 51.3222 295.331 51.5796ZM271.05 45.1073H283.938C283.674 43.3421 282.982 41.9876 281.855 41.0376C280.728 40.0753 279.283 39.5911 277.518 39.5911C275.57 39.5911 274.027 40.106 272.887 41.1357C271.742 42.1531 271.129 43.477 271.05 45.1073Z" fill="white"/>
</g>
<g filter="url(#filter10_d_293_3848)">
<path d="M302.207 52.7808C304.326 52.7808 306.127 53.5285 307.597 55.0118C309.08 56.4827 309.827 58.2847 309.827 60.4053C309.827 62.4831 309.08 64.2666 307.597 65.7499C306.127 67.2208 304.326 67.9563 302.207 67.9563C300.13 67.9563 298.348 67.2208 296.865 65.7499C295.395 64.2666 294.66 62.4831 294.66 60.4053C294.66 58.2847 295.395 56.4827 296.865 55.0118C298.348 53.5285 300.13 52.7808 302.207 52.7808Z" fill="white"/>
</g>
<mask id="mask0_293_3848" style="mask-type:luminance" maskUnits="userSpaceOnUse" x="209" y="61" width="23" height="22">
<path d="M209.953 61.2827H231.601V82.9428H209.953V61.2827Z" fill="white"/>
</mask>
<g mask="url(#mask0_293_3848)">
<mask id="mask1_293_3848" style="mask-type:luminance" maskUnits="userSpaceOnUse" x="209" y="61" width="23" height="22">
<path d="M220.777 61.2827L231.601 72.1127L220.777 82.9428L209.953 72.1127L220.777 61.2827Z" fill="white"/>
</mask>
<g mask="url(#mask1_293_3848)">
<path d="M210 61H232V83H210V61Z" fill="#3D3D39"/>
</g>
</g>
<defs>
<filter id="filter0_d_293_3848" x="4" y="4" width="60.3789" height="76.9512" filterUnits="userSpaceOnUse" color-interpolation-filters="sRGB">
<feFlood flood-opacity="0" result="BackgroundImageFix"/>
<feColorMatrix in="SourceAlpha" type="matrix" values="0 0 0 0 0 0 0 0 0 0 0 0 0 0 0 0 0 0 127 0" result="hardAlpha"/>
<feOffset dx="4" dy="4"/>
<feGaussianBlur stdDeviation="5"/>
<feComposite in2="hardAlpha" operator="out"/>
<feColorMatrix type="matrix" values="0 0 0 0 0 0 0 0 0 0 0 0 0 0 0 0 0 0 0.1 0"/>
<feBlend mode="normal" in2="BackgroundImageFix" result="effect1_dropShadow_293_3848"/>
<feBlend mode="normal" in="SourceGraphic" in2="effect1_dropShadow_293_3848" result="shape"/>
</filter>
<filter id="filter1_d_293_3848" x="0" y="0" width="60.3789" height="76.9512" filterUnits="userSpaceOnUse" color-interpolation-filters="sRGB">
<feFlood flood-opacity="0" result="BackgroundImageFix"/>
<feColorMatrix in="SourceAlpha" type="matrix" values="0 0 0 0 0 0 0 0 0 0 0 0 0 0 0 0 0 0 127 0" result="hardAlpha"/>
<feOffset/>
<feGaussianBlur stdDeviation="5"/>
<feComposite in2="hardAlpha" operator="out"/>
<feColorMatrix type="matrix" values="0 0 0 0 0 0 0 0 0 0 0 0 0 0 0 0 0 0 0.1 0"/>
<feBlend mode="normal" in2="BackgroundImageFix" result="effect1_dropShadow_293_3848"/>
<feBlend mode="normal" in="SourceGraphic" in2="effect1_dropShadow_293_3848" result="shape"/>
</filter>
<filter id="filter2_d_293_3848" x="38.0742" y="25.9911" width="60.6973" height="55.9653" filterUnits="userSpaceOnUse" color-interpolation-filters="sRGB">
<feFlood flood-opacity="0" result="BackgroundImageFix"/>
<feColorMatrix in="SourceAlpha" type="matrix" values="0 0 0 0 0 0 0 0 0 0 0 0 0 0 0 0 0 0 127 0" result="hardAlpha"/>
<feOffset dx="4" dy="4"/>
<feGaussianBlur stdDeviation="5"/>
<feComposite in2="hardAlpha" operator="out"/>
<feColorMatrix type="matrix" values="0 0 0 0 0 0 0 0 0 0 0 0 0 0 0 0 0 0 0.1 0"/>
<feBlend mode="normal" in2="BackgroundImageFix" result="effect1_dropShadow_293_3848"/>
<feBlend mode="normal" in="SourceGraphic" in2="effect1_dropShadow_293_3848" result="shape"/>
</filter>
<filter id="filter3_d_293_3848" x="78.0449" y="25.9911" width="56.459" height="54.9601" filterUnits="userSpaceOnUse" color-interpolation-filters="sRGB">
<feFlood flood-opacity="0" result="BackgroundImageFix"/>
<feColorMatrix in="SourceAlpha" type="matrix" values="0 0 0 0 0 0 0 0 0 0 0 0 0 0 0 0 0 0 127 0" result="hardAlpha"/>
<feOffset dx="4" dy="4"/>
<feGaussianBlur stdDeviation="5"/>
<feComposite in2="hardAlpha" operator="out"/>
<feColorMatrix type="matrix" values="0 0 0 0 0 0 0 0 0 0 0 0 0 0 0 0 0 0 0.1 0"/>
<feBlend mode="normal" in2="BackgroundImageFix" result="effect1_dropShadow_293_3848"/>
<feBlend mode="normal" in="SourceGraphic" in2="effect1_dropShadow_293_3848" result="shape"/>
</filter>
<filter id="filter4_d_293_3848" x="113.113" y="25.9911" width="50.1855" height="55.9653" filterUnits="userSpaceOnUse" color-interpolation-filters="sRGB">
<feFlood flood-opacity="0" result="BackgroundImageFix"/>
<feColorMatrix in="SourceAlpha" type="matrix" values="0 0 0 0 0 0 0 0 0 0 0 0 0 0 0 0 0 0 127 0" result="hardAlpha"/>
<feOffset dx="4" dy="4"/>
<feGaussianBlur stdDeviation="5"/>
<feComposite in2="hardAlpha" operator="out"/>
<feColorMatrix type="matrix" values="0 0 0 0 0 0 0 0 0 0 0 0 0 0 0 0 0 0 0.1 0"/>
<feBlend mode="normal" in2="BackgroundImageFix" result="effect1_dropShadow_293_3848"/>
<feBlend mode="normal" in="SourceGraphic" in2="effect1_dropShadow_293_3848" result="shape"/>
</filter>
<filter id="filter5_d_293_3848" x="140.9" y="5.9859" width="33.8926" height="74.9654" filterUnits="userSpaceOnUse" color-interpolation-filters="sRGB">
<feFlood flood-opacity="0" result="BackgroundImageFix"/>
<feColorMatrix in="SourceAlpha" type="matrix" values="0 0 0 0 0 0 0 0 0 0 0 0 0 0 0 0 0 0 127 0" result="hardAlpha"/>
<feOffset dx="4" dy="4"/>
<feGaussianBlur stdDeviation="5"/>
<feComposite in2="hardAlpha" operator="out"/>
<feColorMatrix type="matrix" values="0 0 0 0 0 0 0 0 0 0 0 0 0 0 0 0 0 0 0.1 0"/>
<feBlend mode="normal" in2="BackgroundImageFix" result="effect1_dropShadow_293_3848"/>
<feBlend mode="normal" in="SourceGraphic" in2="effect1_dropShadow_293_3848" result="shape"/>
</filter>
<filter id="filter6_d_293_3848" x="153.143" y="25.9911" width="56.875" height="55.9653" filterUnits="userSpaceOnUse" color-interpolation-filters="sRGB">
<feFlood flood-opacity="0" result="BackgroundImageFix"/>
<feColorMatrix in="SourceAlpha" type="matrix" values="0 0 0 0 0 0 0 0 0 0 0 0 0 0 0 0 0 0 127 0" result="hardAlpha"/>
<feOffset dx="4" dy="4"/>
<feGaussianBlur stdDeviation="5"/>
<feComposite in2="hardAlpha" operator="out"/>
<feColorMatrix type="matrix" values="0 0 0 0 0 0 0 0 0 0 0 0 0 0 0 0 0 0 0.1 0"/>
<feBlend mode="normal" in2="BackgroundImageFix" result="effect1_dropShadow_293_3848"/>
<feBlend mode="normal" in="SourceGraphic" in2="effect1_dropShadow_293_3848" result="shape"/>
</filter>
<filter id="filter7_d_293_3848" x="189.273" y="25.9911" width="49.6465" height="54.9601" filterUnits="userSpaceOnUse" color-interpolation-filters="sRGB">
<feFlood flood-opacity="0" result="BackgroundImageFix"/>
<feColorMatrix in="SourceAlpha" type="matrix" values="0 0 0 0 0 0 0 0 0 0 0 0 0 0 0 0 0 0 127 0" result="hardAlpha"/>
<feOffset dx="4" dy="4"/>
<feGaussianBlur stdDeviation="5"/>
<feComposite in2="hardAlpha" operator="out"/>
<feColorMatrix type="matrix" values="0 0 0 0 0 0 0 0 0 0 0 0 0 0 0 0 0 0 0.1 0"/>
<feBlend mode="normal" in2="BackgroundImageFix" result="effect1_dropShadow_293_3848"/>
<feBlend mode="normal" in="SourceGraphic" in2="effect1_dropShadow_293_3848" result="shape"/>
</filter>
<filter id="filter8_d_293_3848" x="213.555" y="25.9911" width="59.7168" height="73.1757" filterUnits="userSpaceOnUse" color-interpolation-filters="sRGB">
<feFlood flood-opacity="0" result="BackgroundImageFix"/>
<feColorMatrix in="SourceAlpha" type="matrix" values="0 0 0 0 0 0 0 0 0 0 0 0 0 0 0 0 0 0 127 0" result="hardAlpha"/>
<feOffset dx="4" dy="4"/>
<feGaussianBlur stdDeviation="5"/>
<feComposite in2="hardAlpha" operator="out"/>
<feColorMatrix type="matrix" values="0 0 0 0 0 0 0 0 0 0 0 0 0 0 0 0 0 0 0.1 0"/>
<feBlend mode="normal" in2="BackgroundImageFix" result="effect1_dropShadow_293_3848"/>
<feBlend mode="normal" in="SourceGraphic" in2="effect1_dropShadow_293_3848" result="shape"/>
</filter>
<filter id="filter9_d_293_3848" x="252.529" y="25.9911" width="56.875" height="55.9653" filterUnits="userSpaceOnUse" color-interpolation-filters="sRGB">
<feFlood flood-opacity="0" result="BackgroundImageFix"/>
<feColorMatrix in="SourceAlpha" type="matrix" values="0 0 0 0 0 0 0 0 0 0 0 0 0 0 0 0 0 0 127 0" result="hardAlpha"/>
<feOffset dx="4" dy="4"/>
<feGaussianBlur stdDeviation="5"/>
<feComposite in2="hardAlpha" operator="out"/>
<feColorMatrix type="matrix" values="0 0 0 0 0 0 0 0 0 0 0 0 0 0 0 0 0 0 0.1 0"/>
<feBlend mode="normal" in2="BackgroundImageFix" result="effect1_dropShadow_293_3848"/>
<feBlend mode="normal" in="SourceGraphic" in2="effect1_dropShadow_293_3848" result="shape"/>
</filter>
<filter id="filter10_d_293_3848" x="288.66" y="46.7808" width="35.166" height="35.1755" filterUnits="userSpaceOnUse" color-interpolation-filters="sRGB">
<feFlood flood-opacity="0" result="BackgroundImageFix"/>
<feColorMatrix in="SourceAlpha" type="matrix" values="0 0 0 0 0 0 0 0 0 0 0 0 0 0 0 0 0 0 127 0" result="hardAlpha"/>
<feOffset dx="4" dy="4"/>
<feGaussianBlur stdDeviation="5"/>
<feComposite in2="hardAlpha" operator="out"/>
<feColorMatrix type="matrix" values="0 0 0 0 0 0 0 0 0 0 0 0 0 0 0 0 0 0 0.1 0"/>
<feBlend mode="normal" in2="BackgroundImageFix" result="effect1_dropShadow_293_3848"/>
<feBlend mode="normal" in="SourceGraphic" in2="effect1_dropShadow_293_3848" result="shape"/>
</filter>
</defs>
</svg>
