<svg width="420" height="420" viewBox="0 0 420 420" fill="none" xmlns="http://www.w3.org/2000/svg">
<path d="M128.1 16.629C154.436 5.47444 182.774 -0.182685 211.374 0.00449733L210 210L128.1 16.629Z" fill="#525252" fill-opacity="0.2"/>
<path d="M43.6128 81.8779C65.8056 53.057 95.1041 30.4949 128.638 16.4018L210 210L43.6128 81.8779Z" fill="#525252" fill-opacity="0.4"/>
<path d="M61.5076 358.493C25.4867 322.472 3.7871 274.586 0.450852 223.754C-2.8854 172.922 12.3691 122.61 43.373 82.1899L210 210L61.5076 358.493Z" fill="#525252" fill-opacity="0.6"/>
<path d="M358.492 358.493C319.11 397.875 265.695 420 210 420C154.305 420 100.89 397.875 61.5076 358.493L210 210L358.492 358.493Z" fill="#525252" fill-opacity="0.8"/>
<path d="M358.492 358.493C387.861 329.124 407.862 291.705 415.965 250.969C424.068 210.233 419.909 168.009 404.015 129.637C388.12 91.2641 361.204 58.4665 326.67 35.3914C292.135 12.3163 251.534 3.13574e-06 210 0L210 210L358.492 358.493Z" fill="#525252"/>
</svg>
