<svg width="25" height="25" viewBox="0 0 25 25" fill="none" xmlns="http://www.w3.org/2000/svg">
<circle cx="12.5" cy="12.5" r="12.5" fill="#525252" fill-opacity="0.1"/>
<path d="M17.6694 16.1946L15.848 14.3785C16.4356 13.6298 16.7545 12.7053 16.7533 11.7535C16.7533 10.9059 16.502 10.0773 16.031 9.37247C15.5601 8.66769 14.8908 8.11838 14.1077 7.79401C13.3246 7.46963 12.4628 7.38476 11.6315 7.55012C10.8002 7.71549 10.0365 8.12366 9.43714 8.72303C8.83778 9.3224 8.4296 10.086 8.26424 10.9174C8.09887 11.7487 8.18374 12.6104 8.50812 13.3936C8.83249 14.1767 9.3818 14.846 10.0866 15.3169C10.7914 15.7879 11.62 16.0392 12.4676 16.0392C13.4194 16.0404 14.3439 15.7215 15.0926 15.1338L16.9087 16.9553C16.9585 17.0055 17.0177 17.0453 17.083 17.0725C17.1483 17.0997 17.2183 17.1137 17.289 17.1137C17.3597 17.1137 17.4298 17.0997 17.4951 17.0725C17.5603 17.0453 17.6196 17.0055 17.6694 16.9553C17.7196 16.9055 17.7595 16.8462 17.7866 16.7809C17.8138 16.7157 17.8279 16.6456 17.8279 16.5749C17.8279 16.5042 17.8138 16.4342 17.7866 16.3689C17.7595 16.3036 17.7196 16.2444 17.6694 16.1946ZM9.25332 11.7535C9.25332 11.1178 9.44183 10.4963 9.79502 9.96773C10.1482 9.43914 10.6502 9.02716 11.2375 8.78388C11.8249 8.5406 12.4712 8.47694 13.0947 8.60097C13.7182 8.72499 14.2909 9.03112 14.7404 9.48065C15.19 9.93017 15.4961 10.5029 15.6201 11.1264C15.7441 11.7499 15.6805 12.3962 15.4372 12.9835C15.1939 13.5709 14.7819 14.0729 14.2534 14.4261C13.7248 14.7793 13.1033 14.9678 12.4676 14.9678C11.6151 14.9678 10.7976 14.6291 10.1948 14.0263C9.59196 13.4235 9.25332 12.606 9.25332 11.7535Z" fill="#333333"/>
</svg>
