<svg width="20" height="20" viewBox="0 0 20 20" fill="none" xmlns="http://www.w3.org/2000/svg">
<g clip-path="url(#clip0_545_12815)">
<path d="M10.0037 0C7.42541 0 5.30966 2.25559 5.30965 5.00431V10.0008C5.30966 12.7495 7.42541 14.9954 10.0037 14.9954C12.5821 14.9954 14.6887 12.7495 14.6887 10.0008V5.00431C14.6887 2.25559 12.5821 0 10.0037 0ZM10.0037 2.00134C11.5685 2.00134 12.8132 3.33613 12.8132 5.00431V10.0008C12.8132 11.669 11.5685 12.996 10.0037 12.996C8.43897 12.996 7.18509 11.669 7.18509 10.0008V5.00431C7.18509 3.33613 8.43897 2.00134 10.0037 2.00134ZM3.42688 6.98222C3.39445 6.98243 3.36205 6.98444 3.32982 6.98823C3.09841 7.01683 2.88527 7.13621 2.73191 7.32315C2.57854 7.51008 2.49593 7.75117 2.50015 7.99948V10.9966C2.50015 14.8495 5.44642 18.0003 9.06053 18.0003H7.18509C7.15519 17.9988 7.12524 17.9988 7.09535 18.0003C6.8506 18.0187 6.62234 18.1385 6.45941 18.3341C6.29647 18.5297 6.21182 18.7855 6.22354 19.0468C6.23527 19.308 6.34246 19.554 6.52216 19.7321C6.70187 19.9102 6.93981 20.0063 7.18509 19.9997H12.8132C12.9381 20.0027 13.0624 19.979 13.1786 19.9301C13.2948 19.8812 13.4007 19.8081 13.49 19.715C13.5794 19.6218 13.6504 19.5106 13.6988 19.3878C13.7473 19.2651 13.7722 19.1332 13.7722 19C13.7722 18.8668 13.7473 18.7349 13.6988 18.6121C13.6504 18.4894 13.5794 18.3782 13.49 18.285C13.4007 18.1919 13.2948 18.1188 13.1786 18.0699C13.0624 18.021 12.9381 17.9973 12.8132 18.0003H10.9378C14.5519 18.0003 17.5 14.8495 17.5 10.9966V7.99948C17.5 7.73409 17.4011 7.47957 17.2251 7.29191C17.049 7.10425 16.8103 6.99882 16.5614 6.99882C16.3124 6.99882 16.0737 7.10425 15.8977 7.29191C15.7216 7.47957 15.6227 7.73409 15.6227 7.99948V10.9966C15.6227 13.769 13.5383 15.999 10.9378 15.999H9.06053C6.45998 15.999 4.37559 13.769 4.37559 10.9966V7.99948C4.37779 7.86574 4.3548 7.73289 4.30797 7.6088C4.26114 7.4847 4.19144 7.37188 4.10297 7.27702C4.01451 7.18216 3.90908 7.10721 3.79295 7.05657C3.67682 7.00593 3.55235 6.98064 3.42688 6.98222Z" fill="#9A9FA5"/>
<path d="M10.0037 0C7.42541 0 5.30966 2.25559 5.30965 5.00431V10.0008C5.30966 12.7495 7.42541 14.9954 10.0037 14.9954C12.5821 14.9954 14.6887 12.7495 14.6887 10.0008V5.00431C14.6887 2.25559 12.5821 0 10.0037 0ZM10.0037 2.00134C11.5685 2.00134 12.8132 3.33613 12.8132 5.00431V10.0008C12.8132 11.669 11.5685 12.996 10.0037 12.996C8.43897 12.996 7.18509 11.669 7.18509 10.0008V5.00431C7.18509 3.33613 8.43897 2.00134 10.0037 2.00134ZM3.42688 6.98222C3.39445 6.98243 3.36205 6.98444 3.32982 6.98823C3.09841 7.01683 2.88527 7.13621 2.73191 7.32315C2.57854 7.51008 2.49593 7.75117 2.50015 7.99948V10.9966C2.50015 14.8495 5.44642 18.0003 9.06053 18.0003H7.18509C7.15519 17.9988 7.12524 17.9988 7.09535 18.0003C6.8506 18.0187 6.62234 18.1385 6.45941 18.3341C6.29647 18.5297 6.21182 18.7855 6.22354 19.0468C6.23527 19.308 6.34246 19.554 6.52216 19.7321C6.70187 19.9102 6.93981 20.0063 7.18509 19.9997H12.8132C12.9381 20.0027 13.0624 19.979 13.1786 19.9301C13.2948 19.8812 13.4007 19.8081 13.49 19.715C13.5794 19.6218 13.6504 19.5106 13.6988 19.3878C13.7473 19.2651 13.7722 19.1332 13.7722 19C13.7722 18.8668 13.7473 18.7349 13.6988 18.6121C13.6504 18.4894 13.5794 18.3782 13.49 18.285C13.4007 18.1919 13.2948 18.1188 13.1786 18.0699C13.0624 18.021 12.9381 17.9973 12.8132 18.0003H10.9378C14.5519 18.0003 17.5 14.8495 17.5 10.9966V7.99948C17.5 7.73409 17.4011 7.47957 17.2251 7.29191C17.049 7.10425 16.8103 6.99882 16.5614 6.99882C16.3124 6.99882 16.0737 7.10425 15.8977 7.29191C15.7216 7.47957 15.6227 7.73409 15.6227 7.99948V10.9966C15.6227 13.769 13.5383 15.999 10.9378 15.999H9.06053C6.45998 15.999 4.37559 13.769 4.37559 10.9966V7.99948C4.37779 7.86574 4.3548 7.73289 4.30797 7.6088C4.26114 7.4847 4.19144 7.37188 4.10297 7.27702C4.01451 7.18216 3.90908 7.10721 3.79295 7.05657C3.67682 7.00593 3.55235 6.98064 3.42688 6.98222Z" stroke="white"/>
<path d="M10 18.75V16.25" stroke="#9A9FA5" stroke-linecap="round" stroke-linejoin="round"/>
</g>
<defs>
<clipPath id="clip0_545_12815">
<rect width="20" height="20" fill="white"/>
</clipPath>
</defs>
</svg>
